<svg xmlns="http://www.w3.org/2000/svg" viewBox="0 0 200 200" width="200" height="200">
  <defs>
    <radialGradient id="bg_amara_osei" cx="50%" cy="50%" r="50%">
      <stop offset="0%" stop-color="#14532d"/>
      <stop offset="100%" stop-color="#16a34a"/>
    </radialGradient>
    <clipPath id="circle_amara_osei">
      <circle cx="100" cy="100" r="100"/>
    </clipPath>
  </defs>
  <circle cx="100" cy="100" r="100" fill="url(#bg_amara_osei)"/>
  <g clip-path="url(#circle_amara_osei)">
    <ellipse cx="100" cy="50" rx="45" ry="30" fill="#0a0000"/>
        <path d="M55 65 L52 105 Q60 115 68 108 L70 80" fill="#0a0000"/>
        <path d="M145 65 L148 105 Q140 115 132 108 L130 80" fill="#0a0000"/>
    <ellipse cx="57" cy="100" rx="7" ry="9" fill="#4A2206"/><ellipse cx="143" cy="100" rx="7" ry="9" fill="#4A2206"/>
    <ellipse cx="100" cy="100" rx="42" ry="50" fill="#4A2206"/>
    <circle cx="82" cy="90" r="7" fill="#1a0a00"/><circle cx="118" cy="90" r="7" fill="#1a0a00"/><circle cx="84" cy="88" r="2" fill="white"/><circle cx="120" cy="88" r="2" fill="white"/>
    <ellipse cx="100" cy="108" rx="7" ry="4" fill="none" stroke="rgba(0,0,0,0.15)" stroke-width="1.5"/>
    <path d="M87 122 Q100 130 113 122" fill="none" stroke="rgba(0,0,0,0.2)" stroke-width="2" stroke-linecap="round"/>
    <rect x="88" y="140" width="24" height="22" rx="5" fill="#4A2206"/>
    <path d="M38 185 Q52 158 100 155 Q148 158 162 185 L166 200 H34 Z" fill="#16a34a"/>
  </g>
</svg>