<svg xmlns="http://www.w3.org/2000/svg" viewBox="0 0 200 200" width="200" height="200">
  <defs>
    <radialGradient id="bg_fatima_al_rashid" cx="50%" cy="50%" r="50%">
      <stop offset="0%" stop-color="#701a75"/>
      <stop offset="100%" stop-color="#d946ef"/>
    </radialGradient>
    <clipPath id="circle_fatima_al_rashid">
      <circle cx="100" cy="100" r="100"/>
    </clipPath>
  </defs>
  <circle cx="100" cy="100" r="100" fill="url(#bg_fatima_al_rashid)"/>
  <g clip-path="url(#circle_fatima_al_rashid)">
    <ellipse cx="100" cy="50" rx="47" ry="32" fill="#0d0000"/>
        <path d="M53 70 Q50 100 53 130 Q100 145 147 130 Q150 100 147 70" fill="#0d0000"/>
        <ellipse cx="100" cy="70" rx="44" ry="12" fill="#0d0000"/>
    <ellipse cx="57" cy="100" rx="7" ry="9" fill="#C68642"/><ellipse cx="143" cy="100" rx="7" ry="9" fill="#C68642"/>
    <ellipse cx="100" cy="100" rx="42" ry="50" fill="#C68642"/>
    <circle cx="82" cy="90" r="7" fill="#1a0a00"/><circle cx="118" cy="90" r="7" fill="#1a0a00"/><circle cx="84" cy="88" r="2" fill="white"/><circle cx="120" cy="88" r="2" fill="white"/>
    <path d="M97 100 L94 110 M103 100 L106 110 M94 110 Q100 113 106 110" fill="none" stroke="rgba(0,0,0,0.15)" stroke-width="1.5"/>
    <path d="M87 122 Q100 130 113 122" fill="none" stroke="rgba(0,0,0,0.2)" stroke-width="2" stroke-linecap="round"/>
    <rect x="88" y="140" width="24" height="22" rx="5" fill="#C68642"/>
    <path d="M35 185 Q48 158 100 155 Q152 158 165 185 L168 200 H32 Z" fill="#d946ef"/>
  </g>
</svg>