<svg xmlns="http://www.w3.org/2000/svg" viewBox="0 0 200 200" width="200" height="200">
  <defs>
    <radialGradient id="bg_kwame_asante" cx="50%" cy="50%" r="50%">
      <stop offset="0%" stop-color="#7c2d12"/>
      <stop offset="100%" stop-color="#ea580c"/>
    </radialGradient>
    <clipPath id="circle_kwame_asante">
      <circle cx="100" cy="100" r="100"/>
    </clipPath>
  </defs>
  <circle cx="100" cy="100" r="100" fill="url(#bg_kwame_asante)"/>
  <g clip-path="url(#circle_kwame_asante)">
    <ellipse cx="100" cy="52" rx="42" ry="30" fill="#0a0000"/><path d="M58 65 Q60 45 100 42 Q140 45 142 65" fill="#0a0000"/>
    <ellipse cx="57" cy="100" rx="7" ry="9" fill="#4A2206"/><ellipse cx="143" cy="100" rx="7" ry="9" fill="#4A2206"/>
    <ellipse cx="100" cy="100" rx="42" ry="50" fill="#4A2206"/>
    <circle cx="82" cy="90" r="7" fill="#1a0a00"/><circle cx="118" cy="90" r="7" fill="#1a0a00"/><circle cx="84" cy="88" r="2" fill="white"/><circle cx="120" cy="88" r="2" fill="white"/>
    <ellipse cx="100" cy="108" rx="7" ry="4" fill="none" stroke="rgba(0,0,0,0.15)" stroke-width="1.5"/>
    <path d="M87 122 Q100 130 113 122" fill="none" stroke="rgba(0,0,0,0.2)" stroke-width="2" stroke-linecap="round"/>
    <rect x="88" y="140" width="24" height="25" rx="5" fill="#4A2206"/>
    <path d="M40 185 Q50 160 100 155 Q150 160 160 185 L165 200 H35 Z" fill="#ea580c"/>
  </g>
</svg>