<svg xmlns="http://www.w3.org/2000/svg" viewBox="0 0 200 200" width="200" height="200">
  <defs>
    <radialGradient id="bg_sarah_chen" cx="50%" cy="50%" r="50%">
      <stop offset="0%" stop-color="#581c87"/>
      <stop offset="100%" stop-color="#a855f7"/>
    </radialGradient>
    <clipPath id="circle_sarah_chen">
      <circle cx="100" cy="100" r="100"/>
    </clipPath>
  </defs>
  <circle cx="100" cy="100" r="100" fill="url(#bg_sarah_chen)"/>
  <g clip-path="url(#circle_sarah_chen)">
    <ellipse cx="100" cy="50" rx="45" ry="30" fill="#0d0000"/>
        <path d="M55 65 L50 130 Q55 140 65 135 L68 90" fill="#0d0000"/>
        <path d="M145 65 L150 130 Q145 140 135 135 L132 90" fill="#0d0000"/>
    <ellipse cx="57" cy="100" rx="7" ry="9" fill="#F1C27D"/><ellipse cx="143" cy="100" rx="7" ry="9" fill="#F1C27D"/>
    <ellipse cx="100" cy="100" rx="42" ry="50" fill="#F1C27D"/>
    <ellipse cx="82" cy="90" rx="8" ry="5" fill="#1a0a00"/><ellipse cx="118" cy="90" rx="8" ry="5" fill="#1a0a00"/>
    <path d="M97 100 L94 110 M103 100 L106 110 M94 110 Q100 113 106 110" fill="none" stroke="rgba(0,0,0,0.15)" stroke-width="1.5"/>
    <path d="M87 122 Q100 130 113 122" fill="none" stroke="rgba(0,0,0,0.2)" stroke-width="2" stroke-linecap="round"/>
    <rect x="88" y="140" width="24" height="22" rx="5" fill="#F1C27D"/>
    <path d="M38 185 Q52 158 100 155 Q148 158 162 185 L166 200 H34 Z" fill="#a855f7"/>
  </g>
</svg>